# xmcd CD database file
#
# Track frame offsets:
#	150
#	33327
#	76619
#	97569
#	128628
#	154010
#	174615
#	196464
#
# Disc length: 4086 seconds
#
# Revision: 0
# Processed by: cddbd v1.5.1PL0 Copyright (c) Steve Scherf et al.
# Submitted via: CDex 1.51
#
DISCID=4f0ff408
DTITLE=Charles Mingus - Oh Yeah
DYEAR=1961
DGENRE=Jazz
TTITLE0=Hog Callin' Blues
TTITLE1=Devil Woman
TTITLE2=Wham Bam Thank You Ma'am
TTITLE3=Ecclusiastics
TTITLE4=Oh Lord Don't Let Them Drop That Atomic Bomb On Me
TTITLE5=Eat That Chicken
TTITLE6=Passions Of A Man
TTITLE7=Charles Mingus Interviewed By Nesuhi Ertegun
EXTD=YEAR: 1961
EXTT0=
EXTT1=
EXTT2=
EXTT3=
EXTT4=
EXTT5=
EXTT6=
EXTT7=
PLAYORDER=
